<?xml version="1.0" standalone="no"?>
<!DOCTYPE svg PUBLIC "-//W3C//DTD SVG 20010904//EN"
 "http://www.w3.org/TR/2001/REC-SVG-20010904/DTD/svg10.dtd">
<svg version="1.0" xmlns="http://www.w3.org/2000/svg"
 width="300.000000pt" height="309.000000pt" viewBox="0 0 300.000000 309.000000"
 preserveAspectRatio="xMidYMid meet">
<metadata>
Created by potrace 1.10, written by Peter Selinger 2001-2011
</metadata>
<g transform="translate(0.000000,309.000000) scale(0.100000,-0.100000)"
fill="#000000" stroke="none">
<path d="M728 2298 c-5 -870 -6 -840 24 -955 104 -391 328 -618 680 -691 75
-16 79 -16 164 6 256 68 469 213 587 403 56 91 89 169 123 292 24 90 25 103
34 607 5 283 9 575 10 648 l0 132 -810 0 -810 0 -2 -442z m1442 403 c8 0 40
-1 70 -1 30 -1 59 -6 65 -11 12 -12 16 -104 6 -133 l-8 -21 -7 23 c-4 12 -12
20 -17 17 -5 -4 -9 0 -9 9 0 8 5 16 11 18 6 2 -2 10 -18 18 -15 8 -41 23 -57
34 -24 16 -34 18 -58 8 -16 -6 -35 -9 -42 -6 -7 3 -24 0 -39 -5 -17 -7 -28 -7
-32 -1 -10 16 -47 11 -60 -7 -13 -17 -14 -17 -33 1 -15 13 -25 15 -38 8 -11
-6 -27 -6 -45 1 -23 9 -32 8 -50 -8 -12 -11 -19 -15 -15 -8 12 21 -43 28 -74
10 -15 -9 -30 -14 -33 -11 -20 20 -57 6 -70 -26 -4 -12 -6 -11 -6 3 -1 9 -6
17 -12 17 -5 0 -8 4 -5 9 3 5 -12 4 -34 -1 -30 -8 -44 -7 -55 2 -12 10 -19 10
-33 -2 -21 -18 -48 -17 -44 1 2 11 -7 12 -38 7 -30 -5 -45 -2 -56 9 -14 13
-19 13 -44 0 -18 -9 -31 -11 -35 -5 -8 13 -52 13 -60 0 -5 -8 -11 -7 -21 1
-11 9 -20 9 -41 0 -18 -8 -29 -9 -37 -1 -15 15 -52 12 -69 -5 -13 -13 -16 -13
-21 1 -4 11 -14 14 -35 9 -17 -3 -32 -2 -36 4 -9 16 -39 13 -76 -6 -46 -25
-69 -45 -69 -60 0 -7 -6 -13 -12 -13 -17 0 -17 92 -1 112 11 12 104 14 695 12
376 -2 690 -3 698 -3z m-1217 -124 c32 -55 37 -70 27 -82 -7 -8 -16 -13 -20
-10 -16 10 -80 127 -80 146 0 39 34 14 73 -54z m304 21 c20 -47 -9 -53 -32 -7
-19 36 -13 72 9 48 7 -8 17 -26 23 -41z m66 45 c3 -5 8 -23 12 -41 6 -29 5
-33 -11 -30 -17 3 -38 61 -26 73 8 7 20 6 25 -2z m447 -10 c0 -34 -12 -63 -26
-63 -15 0 -18 21 -8 58 7 26 34 30 34 5z m84 8 c9 -15 -23 -81 -39 -81 -19 0
-19 9 0 54 15 35 28 45 39 27z m332 -5 c7 -19 -75 -158 -90 -153 -22 7 -16 37
21 101 36 65 58 80 69 52z m-1166 -51 c29 -50 32 -75 10 -75 -14 0 -72 101
-66 116 10 25 24 15 56 -41z m80 5 c29 -45 33 -70 10 -70 -13 0 -72 98 -65
110 11 18 23 11 55 -40z m78 10 c25 -45 28 -60 9 -60 -13 0 -57 68 -57 89 0
24 26 9 48 -29z m757 30 c7 -11 -41 -90 -55 -90 -17 0 -11 28 13 65 23 36 32
42 42 25z m89 2 c6 -10 -55 -112 -67 -112 -20 0 -16 31 10 73 27 44 46 57 57
39z m76 -12 c0 -26 -52 -110 -67 -110 -21 0 -15 27 18 80 32 53 49 63 49 30z
m-678 -20 c4 -24 1 -30 -14 -30 -10 0 -18 3 -18 8 0 4 -3 17 -6 30 -5 17 -2
22 14 22 14 0 21 -8 24 -30z m88 4 c15 -38 12 -56 -7 -52 -17 3 -36 61 -25 73
11 11 23 4 32 -21z m80 9 c0 -34 -12 -63 -26 -63 -14 0 -19 36 -8 64 8 22 34
20 34 -1z m96 1 c-3 -9 -6 -22 -6 -30 0 -8 -9 -14 -21 -14 -15 0 -19 4 -15 16
3 9 6 22 6 30 0 8 9 14 21 14 15 0 19 -4 15 -16z m-806 -63 c36 -63 44 -101
19 -101 -8 0 -75 99 -86 127 -4 11 12 43 23 43 2 0 21 -31 44 -69z m1370 37
c0 -23 -68 -138 -82 -138 -5 0 -11 7 -15 16 -6 16 3 36 54 117 24 39 43 41 43
5z m-520 -42 c0 -3 -11 -6 -25 -6 -27 0 -32 9 -14 27 9 9 15 8 25 -2 8 -7 14
-16 14 -19z m103 -4 c17 2 21 -1 19 -17 -5 -26 -6 -27 -26 -19 -14 5 -15 9 -4
16 9 6 1 8 -24 6 -40 -4 -45 1 -27 34 11 20 11 20 26 -1 9 -14 23 -21 36 -19z
m-525 1 c2 -9 -7 -13 -29 -13 -18 0 -37 -7 -44 -17 -11 -14 -16 -15 -28 -5
-12 10 -18 9 -33 -5 -19 -19 -21 -20 -57 -22 -13 0 -34 -10 -47 -21 -13 -11
-27 -20 -31 -20 -5 0 -17 -10 -29 -22 -11 -12 -20 -18 -20 -13 0 4 -8 -2 -19
-13 -10 -12 -23 -22 -30 -22 -6 0 -11 -4 -11 -10 0 -5 -5 -10 -11 -10 -6 0
-19 -10 -28 -22 -16 -19 -18 -20 -24 -3 -6 13 -3 16 8 11 11 -4 14 -2 8 7 -15
25 -1 70 30 96 17 14 35 26 41 26 24 2 96 26 101 35 3 5 19 7 35 4 20 -5 34
-1 46 11 11 11 28 16 49 13 24 -3 31 0 28 9 -3 9 0 11 10 7 9 -3 24 -1 34 5
22 13 45 10 51 -6z m262 -19 c0 -10 -11 -13 -42 -11 -56 3 -59 22 -3 24 33 1
45 -2 45 -13z m-740 -33 c35 -31 42 -42 33 -52 -10 -10 -22 -4 -58 25 -45 37
-51 47 -38 59 11 11 16 9 63 -32z m1104 24 c6 -17 42 -20 51 -5 4 7 17 3 33
-9 15 -10 42 -22 60 -26 17 -3 32 -12 32 -18 0 -9 2 -9 8 0 10 15 62 -30 62
-54 0 -10 6 -30 14 -44 11 -22 11 -28 -5 -48 -15 -18 -19 -19 -19 -7 0 18 -58
79 -80 84 -7 2 -23 14 -35 28 -11 13 -24 24 -28 24 -4 0 -18 10 -33 22 -14 13
-35 22 -48 20 -30 -4 -64 27 -44 39 19 12 25 11 32 -6z m373 -2 c4 -11 -82
-83 -98 -83 -23 0 -4 38 33 68 40 32 58 36 65 15z m-837 -18 c28 -14 30 -20
30 -68 0 -28 -6 -60 -14 -69 -9 -13 -12 -56 -8 -178 l5 -160 -69 0 c-38 -1
-105 -7 -149 -15 -86 -16 -185 -20 -185 -7 -1 4 -2 104 -3 223 l-2 217 125 35
c138 39 224 46 270 22z m393 -21 l132 -36 -5 -222 -5 -221 -44 -3 c-25 -2 -86
4 -137 12 -50 9 -119 16 -153 16 l-62 0 2 164 c2 110 -1 169 -8 178 -6 7 -13
38 -14 67 -3 52 -2 56 26 68 52 21 130 15 268 -23z m-308 -49 c4 -28 11 -67
17 -88 14 -48 -1 -87 -35 -87 -13 0 -28 5 -35 12 -15 15 -16 74 -2 83 6 3 10
26 10 50 0 53 17 102 30 89 6 -6 12 -32 15 -59z m-736 -7 c43 -26 53 -40 41
-52 -12 -12 -100 40 -100 59 0 21 17 19 59 -7z m1485 14 c7 -12 -5 -26 -45
-50 -42 -26 -59 -28 -59 -8 0 8 19 26 43 40 46 28 53 30 61 18z m-1244 -237
c0 -192 2 -226 15 -231 8 -4 87 6 176 20 88 15 164 24 169 21 21 -13 8 -24
-20 -19 -17 4 -65 -3 -113 -15 -46 -12 -115 -22 -155 -24 -39 -2 -75 -7 -79
-11 -15 -16 171 2 254 24 46 12 88 18 95 14 24 -15 -153 -54 -272 -61 -81 -4
-123 -11 -143 -23 -26 -16 -23 -17 130 -23 87 -4 191 -7 231 -7 42 0 72 -4 72
-10 0 -7 -88 -9 -257 -8 l-258 3 1 50 c1 28 2 137 3 243 1 272 20 252 24 -25
l2 -218 3 233 c3 306 21 313 25 10 l2 -223 3 233 c1 146 6 232 12 232 6 0 10
-81 11 -222 0 -123 2 -218 4 -213 2 6 5 109 7 230 2 121 7 219 12 217 4 -1 7
-99 7 -218 -2 -153 1 -214 9 -209 7 4 10 78 10 223 0 119 -1 220 0 225 0 4 5
7 10 7 6 0 10 -82 10 -225z m962 -7 l3 -233 2 223 c2 136 7 222 13 222 6 0 10
-86 10 -230 0 -166 3 -230 11 -230 9 0 10 58 7 215 -3 119 -1 218 3 221 5 3 9
-96 9 -220 0 -139 4 -227 10 -231 7 -4 10 70 10 216 0 122 3 219 7 216 3 -4 8
-107 11 -230 2 -122 6 -224 9 -227 3 -3 3 90 2 205 -2 127 1 212 6 215 6 3 11
-87 13 -237 l2 -243 -255 0 c-163 0 -255 4 -255 10 0 6 38 10 93 10 52 0 155
3 230 7 135 6 136 6 104 23 -22 12 -67 19 -142 23 -94 5 -258 36 -273 52 -17
17 20 14 116 -9 59 -14 137 -26 172 -26 81 0 70 13 -13 16 -34 1 -104 12 -155
24 -52 12 -105 20 -118 17 -27 -5 -44 10 -21 19 8 3 71 -4 138 -15 68 -12 147
-22 174 -24 l50 -2 3 228 c3 307 21 304 24 -5z m-1200 135 c39 -21 50 -35 39
-46 -11 -11 -91 34 -91 51 0 16 12 15 52 -5z m1478 4 c0 -15 -84 -59 -94 -50
-13 13 -5 23 32 42 44 24 62 26 62 8z m-1430 -120 c0 -14 -4 -17 -17 -12 -10
4 -31 12 -48 17 -37 13 -49 23 -41 36 4 7 24 4 56 -6 37 -12 50 -21 50 -35z
m1430 34 c0 -13 -12 -22 -42 -30 -52 -15 -63 -15 -63 0 0 6 20 19 45 29 59 23
60 23 60 1z m-776 -23 c5 -10 7 -10 12 0 9 18 26 14 22 -5 -5 -29 -57 -20 -58
10 0 12 18 8 24 -5z m-662 -72 c14 -22 -9 -25 -54 -8 -54 20 -62 27 -54 41 7
11 97 -16 108 -33z m1448 28 c0 -15 -44 -38 -85 -46 -38 -6 -20 24 25 43 56
22 60 23 60 3z m-751 -30 c-16 -19 -43 -18 -60 3 -13 15 -11 16 13 10 15 -4
30 -3 33 3 4 6 11 8 16 4 6 -4 6 -11 -2 -20z m-41 -46 c8 -8 15 -8 27 2 19 16
32 6 17 -13 -18 -21 -72 -11 -72 14 0 12 14 11 28 -3z m-650 -16 c3 -11 -97
-46 -106 -37 -12 12 11 34 45 43 44 11 55 10 61 -6z m1391 4 c44 -13 61 -29
43 -40 -15 -9 -102 25 -102 40 0 17 4 17 59 0z m-1389 -71 c0 -13 -72 -40 -97
-36 -21 3 -4 26 27 37 48 17 70 17 70 -1z m1418 -6 c21 -8 28 -20 16 -31 -5
-6 -85 15 -105 27 -5 4 -7 11 -3 16 6 10 48 5 92 -12z m-770 -12 c2 -10 -3
-17 -12 -17 -18 0 -29 16 -21 31 9 14 29 6 33 -14z m40 6 c-5 -25 -28 -28 -28
-4 0 12 6 21 16 21 9 0 14 -7 12 -17z m42 -17 c0 -18 -16 -29 -30 -21 -13 8
-1 35 16 35 8 0 14 -6 14 -14z m-122 -19 c4 -19 -6 -21 -27 -8 -16 10 -5 34
12 28 7 -2 13 -11 15 -20z m-614 -16 c6 -9 -76 -61 -95 -61 -23 0 -5 32 29 49
41 22 58 25 66 12z m706 -37 c0 -21 -29 -36 -56 -30 -20 5 -25 12 -22 33 4 31
24 42 31 16 4 -15 6 -14 12 6 8 23 9 23 22 6 7 -11 13 -24 13 -31z m50 31 c0
-8 -9 -15 -20 -15 -20 0 -26 11 -13 23 12 13 33 7 33 -8z m650 -6 c40 -21 48
-33 31 -43 -13 -8 -101 37 -101 52 0 18 24 15 70 -9z m-860 -9 c0 -5 -13 -10
-29 -10 -16 0 -36 -3 -45 -6 -9 -3 -16 -1 -16 4 0 12 22 19 63 21 15 0 27 -3
27 -9z m317 -4 c11 -11 -1 -13 -44 -8 -24 2 -43 9 -43 14 0 11 76 5 87 -6z
m-106 -21 c0 -5 -9 -11 -21 -13 -20 -3 -27 8 -13 22 10 9 34 3 34 -9z m-218
-20 c-3 -11 -29 -11 -250 -5 l-148 4 170 6 c213 8 231 7 228 -5z m490 5 c83 0
148 -2 146 -4 -2 -2 -91 -7 -196 -11 -179 -7 -193 -6 -193 10 0 15 7 17 46 11
26 -3 114 -6 197 -6z m-1033 -24 c0 -14 -71 -66 -90 -66 -23 0 -8 29 28 53 42
29 62 33 62 13z m740 4 c11 -7 12 -12 3 -21 -13 -13 -33 -4 -33 17 0 16 9 18
30 4z m669 -17 c20 -14 38 -28 40 -29 2 -2 1 -10 -3 -19 -5 -14 -13 -11 -51
15 -25 17 -45 37 -45 45 0 22 19 18 59 -12z m-779 8 c0 -5 -6 -14 -14 -20 -16
-13 -32 2 -21 19 8 12 35 13 35 1z m30 -26 c0 -25 -14 -34 -24 -16 -8 12 3 41
15 41 5 0 9 -11 9 -25z m44 9 c7 -19 -2 -37 -15 -29 -12 8 -12 45 0 45 5 0 12
-7 15 -16z m637 -21 c14 -37 -3 -51 -35 -29 -24 15 -27 15 -46 -4 -19 -19 -19
-19 -35 3 -10 15 -12 23 -4 26 6 2 15 -3 20 -10 6 -10 9 -10 9 -2 0 7 6 10 13
7 7 -2 22 4 32 16 24 27 33 25 46 -7z m-1287 -1 c8 -13 -7 -30 -29 -34 -14 -2
-21 3 -23 20 -3 18 1 22 22 22 14 0 27 -4 30 -8z m526 -1 c0 -5 3 -16 6 -24 4
-11 -8 -19 -48 -31 -29 -8 -78 -31 -108 -50 -63 -40 -80 -44 -80 -17 0 17 25
36 43 33 4 -1 7 4 7 12 0 16 27 29 41 20 5 -3 9 3 9 13 0 15 2 16 10 3 8 -13
10 -12 10 3 0 20 16 23 23 5 3 -8 6 -6 6 5 1 20 17 23 24 5 3 -8 6 -6 6 5 1
20 17 23 24 5 3 -8 6 -6 6 5 1 17 21 25 21 8z m191 -8 c0 -11 3 -13 6 -5 7 18
23 15 24 -5 0 -11 3 -13 6 -5 7 18 23 15 23 -5 0 -15 2 -16 10 -3 8 12 10 10
11 -10 0 -14 3 -19 6 -12 7 18 23 15 23 -5 0 -15 2 -16 10 -3 8 13 10 12 10
-3 0 -10 4 -15 10 -12 13 8 60 -39 60 -60 0 -24 -15 -18 -86 30 -36 25 -70 45
-75 45 -5 0 -25 7 -45 15 -31 13 -33 16 -22 35 16 25 28 26 29 3z m-648 -24
c-24 -16 -28 -17 -31 -4 -2 8 -9 15 -15 16 -7 0 -3 4 7 8 11 4 30 5 44 3 l23
-5 -28 -18z m71 19 c-3 -4 -1 -8 5 -8 5 0 12 6 15 13 5 10 7 10 12 0 3 -7 10
-13 15 -13 6 0 7 5 4 10 -4 6 30 10 95 10 69 0 99 -3 95 -11 -4 -6 -9 -8 -12
-5 -3 2 -15 -6 -28 -20 -12 -13 -25 -24 -29 -24 -12 0 -45 34 -40 42 7 11 -30
10 -42 -2 -11 -11 -110 -18 -120 -8 -9 10 3 25 20 25 8 0 13 -4 10 -9z m862
-6 c1 -7 0 -8 -3 -2 -3 8 -9 8 -18 0 -9 -8 -15 -8 -20 0 -3 5 -12 10 -18 10
-9 0 -8 -3 1 -8 9 -6 10 -19 5 -45 l-8 -37 -26 22 c-14 13 -34 28 -45 34 -10
6 -21 19 -22 28 -3 15 5 17 74 14 53 -2 78 -7 80 -16z m128 9 c3 -4 -4 -17
-16 -27 -20 -19 -21 -19 -14 6 3 14 3 19 0 13 -8 -17 -21 -16 -28 2 -4 11 2
15 24 15 16 0 31 -4 34 -9z m-504 -22 c0 -8 4 -8 14 0 12 10 17 9 24 -6 9 -16
7 -18 -16 -17 -15 1 -42 3 -60 3 -20 1 -31 5 -27 11 4 6 10 8 15 5 5 -3 11 -1
15 5 8 14 35 13 35 -1z m-687 -5 c7 -7 -72 -104 -85 -104 -17 0 -7 22 29 66
38 44 45 49 56 38z m47 -76 c-25 -35 -56 -80 -70 -100 -14 -21 -31 -37 -39
-38 -19 0 -12 13 65 122 43 62 72 94 78 88 6 -6 -7 -33 -34 -72z m1319 -28
c57 -79 74 -116 51 -108 -16 6 -150 200 -144 210 8 13 22 -2 93 -102z m51 65
c39 -50 46 -65 32 -65 -12 0 -92 89 -92 101 0 22 28 4 60 -36z m-1247 19 c-4
-26 -167 -274 -180 -274 -21 0 -16 13 72 158 53 87 85 131 95 129 8 -2 14 -7
13 -13z m83 3 c6 -17 -172 -331 -191 -335 -8 -2 -15 3 -15 12 0 20 180 336
192 336 5 0 11 -6 14 -13z m79 -7 c0 -8 -45 -102 -100 -207 -72 -138 -105
-193 -117 -193 -10 0 -18 7 -18 16 0 8 46 103 102 210 72 136 107 194 118 192
8 -2 15 -10 15 -18z m832 -181 c56 -107 103 -200 103 -206 0 -7 -9 -13 -19
-13 -15 0 -42 44 -121 195 -94 181 -112 234 -77 223 6 -2 58 -92 114 -199z
m72 17 c44 -79 81 -150 81 -156 0 -6 -7 -10 -16 -8 -24 4 -198 314 -189 336 6
15 8 15 24 -5 10 -12 55 -87 100 -167z m60 54 c45 -72 82 -136 84 -142 1 -7
-5 -13 -13 -15 -10 -2 -42 43 -95 130 -88 145 -93 157 -72 157 8 0 51 -59 96
-130z m-669 90 c0 -5 7 -10 16 -10 8 0 12 5 9 10 -9 15 4 12 21 -5 17 -17 64
-20 64 -5 0 6 5 10 10 10 6 0 9 -5 8 -11 -2 -6 21 -20 51 -31 67 -25 132 -89
149 -144 6 -23 12 -87 12 -142 0 -71 4 -102 13 -105 9 -4 9 -7 -1 -15 -7 -5
-17 -40 -23 -78 -17 -121 -46 -190 -112 -261 -101 -110 -217 -117 -338 -22
-73 58 -119 154 -140 294 -6 41 -15 75 -20 75 -5 0 -9 7 -9 15 0 8 5 15 10 15
6 0 10 41 10 104 0 68 5 115 15 139 29 71 114 132 199 143 32 5 43 10 39 20
-3 8 0 14 6 14 6 0 11 -4 11 -10z m415 -82 c4 -13 17 -39 29 -58 11 -19 19
-41 18 -49 -2 -7 1 -10 7 -6 6 3 11 1 11 -6 0 -7 7 -20 16 -30 8 -9 17 -23 18
-31 1 -7 7 -23 14 -35 7 -12 12 -28 12 -36 0 -8 16 -29 35 -46 31 -27 38 -29
55 -19 11 7 20 18 20 25 0 7 5 13 10 13 6 0 10 5 10 11 0 18 54 79 70 79 24 0
44 38 29 56 -9 11 -6 16 16 24 14 5 28 10 29 10 2 0 2 -33 0 -73 -4 -75 -50
-239 -79 -283 -8 -13 -15 -29 -15 -37 0 -37 -196 -287 -226 -287 -5 0 -24 -14
-41 -31 -18 -16 -33 -25 -33 -20 0 6 -9 2 -21 -10 -25 -25 -86 -52 -100 -43
-13 8 -9 100 7 146 8 23 9 40 3 43 -12 8 -12 75 1 75 6 0 10 7 10 16 0 22 39
142 57 177 8 15 12 31 9 35 -8 13 9 67 20 64 5 -2 12 7 15 20 6 25 -18 78 -36
78 -7 0 -12 6 -12 13 -1 6 -4 30 -8 52 -3 22 -7 50 -8 62 -2 13 -8 28 -15 35
-7 7 -12 18 -12 25 0 7 -6 13 -12 13 -7 0 -1 8 14 17 15 9 29 25 32 36 4 15 8
17 25 8 11 -6 23 -21 26 -33z m-673 -5 c2 -10 -2 -27 -9 -39 -7 -11 -18 -47
-24 -80 -6 -32 -17 -63 -25 -67 -8 -5 -12 -12 -9 -17 3 -5 -4 -15 -16 -23 -16
-12 -19 -21 -14 -39 4 -12 10 -25 14 -28 16 -13 31 -53 31 -85 0 -19 5 -35 10
-35 6 0 10 -11 10 -25 0 -14 10 -56 22 -93 12 -37 21 -73 20 -79 -2 -7 1 -13
6 -13 6 0 8 -17 5 -37 -2 -21 -4 -42 -3 -48 1 -5 4 -51 6 -101 5 -78 3 -91
-10 -91 -9 0 -16 3 -16 6 0 3 -15 13 -32 20 -145 64 -301 264 -372 474 -9 26
-16 56 -16 65 0 10 -4 22 -9 28 -13 12 -36 176 -28 197 7 19 42 23 52 7 4 -6
1 -18 -7 -27 -11 -14 -11 -16 1 -8 11 6 13 4 9 -7 -6 -16 44 -53 56 -41 3 3 6
-3 6 -14 0 -11 11 -30 25 -43 13 -12 23 -25 22 -29 -1 -3 5 -15 13 -26 16 -23
71 -29 63 -7 -3 6 -1 12 5 12 5 0 17 17 27 38 31 69 49 102 57 102 5 0 8 6 8
13 0 12 39 91 66 135 17 26 51 29 56 5z m-37 -249 c0 -10 4 -25 8 -31 9 -14 1
-33 -14 -33 -5 0 -9 5 -9 11 0 7 -7 17 -16 24 -14 9 -14 15 -5 34 14 26 36 23
36 -5z m695 -13 c13 -26 13 -31 -5 -31 -8 0 -15 -9 -15 -20 0 -21 -15 -27 -25
-10 -4 6 -1 17 5 25 6 8 9 19 5 25 -7 12 2 30 15 30 5 0 14 -9 20 -19z m-551
-455 c115 -117 252 -116 373 1 47 46 68 49 68 10 0 -16 -15 -32 -50 -55 -126
-82 -232 -98 -331 -49 -77 37 -129 83 -129 113 0 35 20 30 69 -20z m-8 -75
c112 -82 260 -79 391 6 21 13 30 15 39 6 10 -10 -5 -21 -66 -49 -63 -30 -92
-38 -155 -42 -46 -3 -93 1 -116 8 -54 17 -144 71 -144 87 0 18 5 17 51 -16z
m24 -56 c113 -58 220 -57 337 1 50 25 84 31 72 13 -13 -21 -127 -68 -194 -79
-57 -10 -79 -9 -132 5 -61 15 -168 71 -168 87 0 13 12 9 85 -27z m-25 -36 c96
-59 218 -68 322 -24 118 50 161 42 57 -10 -70 -36 -172 -58 -233 -50 -57 7
-163 54 -191 85 -25 27 -1 27 45 -1z"/>
<path d="M1218 2407 c-27 -10 -38 -27 -18 -27 16 0 60 23 60 32 0 10 -7 9 -42
-5z"/>
<path d="M1345 2410 c3 -5 19 -10 36 -10 16 0 29 5 29 10 0 6 -16 10 -36 10
-21 0 -33 -4 -29 -10z"/>
<path d="M1300 2380 c0 -6 25 -10 58 -9 43 1 51 3 32 9 -36 12 -90 12 -90 0z"/>
<path d="M1341 2301 c-9 -6 0 -10 28 -13 44 -4 56 6 19 16 -29 7 -30 7 -47 -3z"/>
<path d="M1250 2290 c0 -5 14 -10 30 -10 17 0 30 5 30 10 0 6 -13 10 -30 10
-16 0 -30 -4 -30 -10z"/>
<path d="M1134 2138 c-3 -5 13 -8 35 -8 23 0 41 4 41 9 0 11 -70 10 -76 -1z"/>
<path d="M1660 2420 c0 -5 14 -10 30 -10 17 0 30 5 30 10 0 6 -13 10 -30 10
-16 0 -30 -4 -30 -10z"/>
<path d="M1800 2412 c0 -12 68 -43 74 -33 3 4 -11 15 -30 24 -40 19 -44 20
-44 9z"/>
<path d="M1660 2382 c0 -5 23 -9 50 -10 28 0 50 3 50 9 0 5 -22 9 -50 9 -27 0
-50 -4 -50 -8z"/>
<path d="M1650 2301 c0 -6 18 -9 40 -9 22 0 40 4 40 9 0 5 -18 9 -40 9 -22 0
-40 -4 -40 -9z"/>
<path d="M1750 2290 c0 -5 14 -10 31 -10 17 0 28 4 24 10 -3 6 -17 10 -31 10
-13 0 -24 -4 -24 -10z"/>
<path d="M1855 2130 c28 -12 65 -12 65 0 0 6 -19 10 -42 9 -33 0 -38 -2 -23
-9z"/>
<path d="M1325 1480 c-4 -6 8 -10 30 -10 20 0 49 -7 65 -15 19 -10 30 -11 30
-5 0 26 -111 52 -125 30z"/>
<path d="M1645 1482 c-32 -11 -60 -30 -54 -36 3 -4 19 0 35 9 16 8 45 15 64
16 29 0 31 2 15 9 -23 10 -33 10 -60 2z"/>
<path d="M1325 1440 c14 -22 64 -40 96 -33 l32 6 -22 19 c-25 19 -118 27 -106
8z"/>
<path d="M1622 1432 c-37 -20 -33 -32 10 -32 33 0 88 25 88 40 0 16 -62 11
-98 -8z"/>
<path d="M1310 1411 c0 -17 56 -41 95 -41 19 0 35 5 35 10 0 6 -16 10 -35 10
-20 0 -49 7 -65 15 -17 9 -30 11 -30 6z"/>
<path d="M1690 1398 c-21 -11 -46 -17 -62 -14 -16 3 -28 1 -28 -4 0 -14 74
-12 105 2 14 6 25 17 25 25 0 7 -1 12 -2 12 -2 -1 -19 -10 -38 -21z"/>
<path d="M1435 1300 c-18 -35 -13 -50 16 -50 11 0 30 -7 42 -15 21 -13 27 -12
66 7 51 25 60 42 36 68 -26 28 -40 25 -21 -5 16 -24 16 -25 -8 -25 -14 0 -30
-8 -35 -17 -10 -17 -12 -17 -25 0 -7 9 -23 17 -35 17 -22 0 -28 14 -11 25 13
8 13 25 0 25 -5 0 -17 -14 -25 -30z"/>
<path d="M1411 1163 c-39 -39 -36 -49 11 -35 36 11 146 9 191 -3 35 -9 35 6
-2 42 -25 25 -36 28 -97 29 -66 1 -71 -1 -103 -33z m182 3 c31 -14 18 -21 -36
-20 -147 4 -142 3 -122 17 19 15 127 16 158 3z"/>
<path d="M1454 1112 c-34 -7 -36 -19 -7 -42 23 -18 37 -21 76 -17 48 4 95 33
79 49 -9 9 -114 16 -148 10z m126 -23 c0 -17 -80 -26 -114 -13 -33 13 -14 20
49 20 36 -1 65 -4 65 -7z"/>
<path d="M350 1612 c-86 -43 -95 -50 -98 -77 -4 -42 36 -82 66 -66 29 15 39
14 46 -6 3 -10 8 -23 11 -29 4 -7 -11 -13 -40 -16 -29 -4 -55 -14 -72 -29 -22
-22 -24 -30 -21 -84 8 -119 135 -382 267 -552 196 -254 460 -416 771 -474 86
-16 325 -16 425 0 102 17 289 78 385 126 252 127 470 344 594 593 52 104 99
247 91 281 -11 50 -81 101 -139 101 l-23 0 21 44 21 43 29 -15 c29 -14 31 -13
53 13 15 17 23 37 21 54 -3 22 -17 33 -102 74 l-98 48 -46 -36 c-56 -43 -117
-123 -148 -192 -23 -52 -54 -158 -54 -186 0 -8 21 -28 47 -45 40 -26 49 -29
56 -17 4 9 5 19 2 24 -3 6 8 36 25 68 30 58 31 58 24 18 -4 -22 -27 -83 -51
-135 -141 -303 -345 -480 -638 -556 -92 -23 -112 -25 -260 -21 -179 5 -277 26
-415 90 -143 65 -287 174 -368 279 -47 61 -132 206 -132 224 0 7 23 27 51 44
50 33 50 33 43 73 -20 124 -86 249 -172 328 -36 32 -68 59 -71 58 -3 0 -49
-21 -101 -47z m90 -25 c0 -32 -4 -36 -67 -65 -50 -23 -70 -28 -80 -20 -30 24
-14 47 60 82 39 19 75 35 80 35 4 1 7 -14 7 -32z m100 -43 c64 -78 107 -170
125 -264 6 -31 3 -37 -23 -52 l-29 -18 -28 78 c-15 42 -34 84 -42 93 -8 9 -40
22 -72 29 -47 10 -61 18 -75 41 l-17 29 56 27 c54 27 57 29 52 61 -3 17 -3 32
1 32 4 -1 27 -26 52 -56z m2114 21 c53 -25 76 -41 76 -53 0 -39 -20 -41 -91
-10 -66 29 -69 33 -69 64 0 19 2 34 4 34 2 0 38 -16 80 -35z m-132 -18 c-4
-32 -1 -35 47 -55 28 -11 51 -27 51 -34 0 -31 -31 -57 -83 -68 -28 -6 -57 -14
-64 -18 -7 -4 -27 -46 -45 -94 l-34 -86 -27 16 c-15 9 -27 24 -27 33 0 29 32
124 62 184 29 58 102 155 117 155 4 0 5 -15 3 -33z m-2030 -172 c22 -6 28 -14
33 -48 10 -63 53 -193 85 -257 102 -203 310 -383 542 -470 181 -67 415 -88
588 -52 357 74 621 322 736 692 27 87 30 91 64 100 88 25 176 1 201 -54 9 -19
7 -39 -11 -98 -97 -322 -359 -621 -671 -767 -202 -95 -344 -126 -569 -125
-190 0 -288 18 -442 80 -200 80 -363 201 -503 375 -104 129 -196 299 -256 471
-32 92 -33 99 -19 125 9 16 30 33 48 39 31 10 114 5 174 -11z m98 -141 c0 -8
-4 -14 -10 -14 -11 0 -40 53 -40 72 1 18 50 -39 50 -58z"/>
<path d="M393 1248 c-46 -14 -60 -23 -56 -34 3 -8 11 -13 17 -11 50 19 54 18
61 -13 4 -16 13 -30 21 -30 17 0 17 1 4 36 -8 21 -8 29 2 36 22 13 27 9 34
-27 3 -20 12 -35 20 -35 17 0 17 5 0 55 -8 22 -20 41 -28 42 -7 0 -41 -8 -75
-19z"/>
<path d="M2526 1210 c-9 -22 -16 -46 -16 -53 0 -15 130 -62 140 -50 4 4 12 22
18 38 5 17 13 38 17 48 5 12 2 17 -9 17 -9 0 -20 -15 -27 -40 -13 -42 -16 -45
-38 -31 -11 7 -11 15 -2 42 14 42 -3 66 -19 25 -5 -15 -10 -32 -10 -37 0 -5
-9 -9 -20 -9 -23 0 -25 15 -5 50 18 32 18 40 1 40 -8 0 -21 -18 -30 -40z"/>
<path d="M450 1143 c-28 -10 -60 -47 -60 -68 0 -39 37 -75 76 -75 42 0 84 37
84 75 0 48 -54 85 -100 68z m58 -35 c34 -34 -1 -82 -56 -76 -23 2 -27 8 -27
33 0 42 56 70 83 43z"/>
<path d="M2492 1108 c-11 -15 -42 -75 -42 -82 0 -12 123 -67 136 -62 23 9 16
24 -16 31 -16 4 -30 10 -30 14 0 16 26 31 56 31 20 0 34 6 38 16 9 24 2 27
-38 16 -32 -9 -36 -8 -36 8 0 18 -27 40 -48 40 -5 0 -14 -6 -20 -12z m44 -32
c6 -15 -12 -56 -24 -56 -4 0 -13 4 -21 9 -11 7 -10 13 4 35 19 29 33 33 41 12z"/>
<path d="M508 993 c-32 -20 -58 -42 -58 -49 0 -18 11 -18 36 1 10 8 22 15 27
15 11 0 9 -29 -5 -67 -9 -24 -9 -36 -1 -44 8 -8 14 -1 24 24 11 32 15 35 45
30 29 -5 34 -2 39 20 5 18 0 39 -16 66 -12 23 -25 41 -28 40 -3 -1 -32 -17
-63 -36z m72 -24 c7 -11 9 -28 5 -37 -6 -15 -10 -13 -31 12 -20 23 -23 31 -12
37 20 13 26 11 38 -12z"/>
<path d="M2427 998 c-2 -7 18 -28 45 -46 51 -35 60 -55 29 -71 -14 -8 -27 -4
-60 20 -27 20 -47 29 -59 24 -16 -6 -15 -8 3 -21 90 -68 126 -73 154 -20 18
33 10 49 -46 90 -53 39 -59 42 -66 24z"/>
<path d="M2327 856 c-23 -29 -33 -47 -26 -52 6 -3 18 1 27 9 14 15 20 12 63
-23 53 -45 55 -46 62 -25 4 9 -12 27 -44 51 -46 33 -49 38 -34 54 14 15 12 30
-5 30 -3 0 -22 -20 -43 -44z"/>
<path d="M612 822 l-53 -47 33 -39 c21 -24 39 -37 46 -32 8 5 4 15 -13 34 -14
15 -25 29 -25 32 1 3 21 21 45 40 42 33 51 50 29 57 -5 1 -33 -19 -62 -45z"/>
<path d="M700 735 l-55 -55 42 -41 c25 -25 46 -39 53 -34 8 5 2 17 -21 41 -27
28 -30 36 -19 49 12 14 16 13 40 -10 24 -23 50 -33 50 -19 0 3 -14 17 -30 31
-25 20 -28 28 -19 40 10 12 17 9 44 -17 23 -22 35 -28 40 -20 5 7 -8 28 -31
51 l-39 39 -55 -55z"/>
<path d="M2232 747 c-12 -13 -22 -26 -22 -30 0 -3 14 -27 32 -51 26 -38 29
-48 18 -61 -20 -25 -37 -18 -70 30 -30 44 -44 53 -54 37 -6 -10 61 -101 80
-109 21 -8 64 17 77 44 9 19 5 30 -20 66 -59 84 -55 88 18 20 l50 -47 37 37
c24 24 33 40 26 47 -6 6 -18 0 -34 -20 l-25 -30 -45 45 -46 45 -22 -23z"/>
<path d="M815 644 c-27 -19 -57 -39 -65 -44 -13 -8 -13 -11 -1 -19 9 -6 21 -5
31 1 23 15 64 -14 65 -44 0 -12 5 -23 10 -25 11 -3 47 146 39 159 -9 14 -29 7
-79 -28z m47 -29 c-5 -27 -10 -30 -32 -15 -13 9 -12 12 4 25 28 21 34 19 28
-10z"/>
<path d="M2056 619 c-36 -28 -35 -72 3 -110 16 -16 39 -29 51 -29 37 0 85 62
64 83 -9 9 -35 -4 -28 -14 8 -14 -15 -39 -36 -39 -26 0 -53 47 -45 77 5 22 10
24 35 20 31 -7 51 17 24 27 -26 10 -40 7 -68 -15z"/>
<path d="M918 563 c-18 -32 -34 -61 -36 -64 -2 -4 4 -9 13 -13 10 -4 19 3 27
19 17 38 35 30 44 -22 5 -25 15 -48 23 -51 10 -3 12 4 6 37 -6 37 -5 41 14 41
19 0 41 26 41 49 0 11 -73 61 -89 61 -5 0 -24 -26 -43 -57z m99 -17 c-6 -17
-30 -17 -51 -1 -15 12 -17 17 -7 29 11 14 16 13 37 -1 14 -9 23 -21 21 -27z"/>
<path d="M1046 501 c-30 -77 -31 -81 -13 -81 8 0 20 21 29 48 16 51 19 49 33
-40 9 -61 30 -54 59 21 30 77 31 81 13 81 -8 0 -20 -21 -29 -47 -17 -52 -23
-47 -33 29 -9 71 -28 67 -59 -11z"/>
<path d="M1873 535 c-18 -8 -33 -16 -33 -19 0 -10 43 -121 49 -129 11 -12 79
21 91 44 15 26 5 67 -22 97 -25 25 -40 27 -85 7z m73 -40 c20 -30 16 -53 -13
-72 -20 -14 -22 -12 -42 33 -17 37 -19 49 -9 56 24 14 47 8 64 -17z"/>
<path d="M1187 463 c-9 -32 -19 -65 -22 -74 -4 -10 0 -19 9 -22 11 -4 20 11
36 64 19 65 20 89 1 89 -4 0 -15 -26 -24 -57z"/>
<path d="M1803 491 c3 -16 9 -41 13 -56 6 -24 1 -21 -39 22 -61 64 -74 53 -51
-44 13 -51 21 -70 31 -66 7 3 11 13 9 22 -3 9 -8 30 -12 46 l-7 30 44 -42 c25
-24 49 -39 55 -35 17 10 -16 152 -35 152 -10 0 -12 -8 -8 -29z"/>
<path d="M1241 448 c-7 -29 -14 -63 -17 -75 -5 -17 -2 -23 9 -23 11 0 18 14
23 45 3 25 10 45 14 45 4 0 13 -19 19 -42 26 -86 44 -88 60 -7 7 34 15 67 17
74 3 7 -2 15 -10 18 -12 5 -17 -5 -22 -43 -4 -28 -9 -50 -13 -50 -3 0 -13 24
-21 52 -21 74 -44 76 -59 6z"/>
<path d="M1391 454 c-28 -36 -27 -79 4 -109 26 -27 49 -31 89 -15 34 12 38 69
6 72 -11 0 -25 1 -32 2 -6 1 -13 -5 -15 -11 -3 -8 4 -13 17 -13 28 0 21 -24
-9 -28 -30 -5 -51 15 -51 47 0 47 38 65 80 39 27 -17 37 -2 15 22 -27 30 -78
27 -104 -6z"/>
<path d="M1615 468 c-29 -95 -39 -125 -43 -135 -2 -7 3 -13 13 -13 9 0 19 9
22 20 3 11 10 20 17 20 6 0 21 3 33 6 16 4 23 0 28 -15 3 -12 13 -21 21 -21
19 0 19 1 -21 80 -33 66 -60 88 -70 58z m35 -37 c0 -5 3 -16 6 -25 4 -12 0
-16 -16 -16 -16 0 -20 4 -16 16 3 9 6 20 6 25 0 5 5 9 10 9 6 0 10 -4 10 -9z"/>
</g>
</svg>
